# 3ds Max Wavefront OBJ Exporter v0.97b - (c)2007 guruware
# File Created: 11.05.2018 14:22:19

#
# object GeoSphere001
#

v  0.0000 25.0000 -0.0000
v  9.5671 23.0970 -0.0000
v  0.0000 23.0970 -9.5671
v  17.6777 17.6777 -0.0000
v  10.2062 20.4124 -10.2062
v  0.0000 17.6777 -17.6777
v  23.0970 9.5671 -0.0000
v  18.9815 12.2821 -10.6701
v  10.6701 12.2821 -18.9815
v  0.0000 9.5671 -23.0970
v  25.0000 0.0000 -0.0000
v  23.0970 0.0000 -9.5671
v  17.6777 0.0000 -17.6777
v  9.5671 0.0000 -23.0970
v  0.0000 0.0000 -25.0000
v  -9.5671 23.0970 -0.0000
v  -10.2062 20.4124 -10.2062
v  -17.6777 17.6777 -0.0000
v  -10.6701 12.2821 -18.9815
v  -18.9815 12.2821 -10.6701
v  -23.0970 9.5671 -0.0000
v  -9.5671 0.0000 -23.0970
v  -17.6777 0.0000 -17.6777
v  -23.0970 0.0000 -9.5671
v  -25.0000 0.0000 -0.0000
v  0.0000 23.0970 9.5671
v  -10.2062 20.4124 10.2062
v  0.0000 17.6777 17.6777
v  -18.9815 12.2821 10.6701
v  -10.6701 12.2821 18.9815
v  0.0000 9.5671 23.0970
v  -23.0970 0.0000 9.5671
v  -17.6777 0.0000 17.6777
v  -9.5671 0.0000 23.0970
v  0.0000 0.0000 25.0000
v  10.2062 20.4124 10.2062
v  10.6701 12.2821 18.9815
v  18.9815 12.2821 10.6701
v  9.5671 0.0000 23.0970
v  17.6777 0.0000 17.6777
v  23.0970 0.0000 9.5671
v  0.0000 -25.0000 -0.0000
v  0.0000 -23.0970 -9.5671
v  9.5671 -23.0970 -0.0000
v  0.0000 -17.6777 -17.6777
v  10.2062 -20.4124 -10.2062
v  17.6777 -17.6777 -0.0000
v  0.0000 -9.5671 -23.0970
v  10.6701 -12.2821 -18.9815
v  18.9815 -12.2821 -10.6701
v  23.0970 -9.5671 -0.0000
v  -9.5671 -23.0970 -0.0000
v  -17.6777 -17.6777 -0.0000
v  -10.2062 -20.4124 -10.2062
v  -23.0970 -9.5671 -0.0000
v  -18.9815 -12.2821 -10.6701
v  -10.6701 -12.2821 -18.9815
v  0.0000 -23.0970 9.5671
v  0.0000 -17.6777 17.6777
v  -10.2062 -20.4124 10.2062
v  0.0000 -9.5671 23.0970
v  -10.6701 -12.2821 18.9815
v  -18.9815 -12.2821 10.6701
v  10.2062 -20.4124 10.2062
v  18.9815 -12.2821 10.6701
v  10.6701 -12.2821 18.9815
# 66 vertices

vn 0.0000 1.0000 -0.0000
vn 0.3774 0.9261 0.0000
vn 0.0000 0.9261 -0.3774
vn 0.7046 0.7096 0.0000
vn 0.4143 0.8104 -0.4143
vn 0.0000 0.7096 -0.7046
vn 0.9272 0.3746 0.0000
vn 0.7616 0.4784 -0.4373
vn 0.4373 0.4784 -0.7616
vn 0.0000 0.3746 -0.9272
vn 1.0000 -0.0000 -0.0000
vn 0.9220 0.0000 -0.3872
vn 0.7071 0.0000 -0.7071
vn 0.3872 0.0000 -0.9220
vn 0.0000 -0.0000 -1.0000
vn -0.3774 0.9261 -0.0000
vn -0.4143 0.8104 -0.4143
vn -0.7046 0.7096 -0.0000
vn -0.4373 0.4784 -0.7616
vn -0.7616 0.4784 -0.4373
vn -0.9272 0.3746 -0.0000
vn -0.3872 0.0000 -0.9220
vn -0.7071 0.0000 -0.7071
vn -0.9220 0.0000 -0.3872
vn -1.0000 -0.0000 -0.0000
vn -0.0000 0.9261 0.3774
vn -0.4143 0.8104 0.4143
vn -0.0000 0.7096 0.7046
vn -0.7616 0.4784 0.4373
vn -0.4373 0.4784 0.7616
vn -0.0000 0.3746 0.9272
vn -0.9220 0.0000 0.3872
vn -0.7071 0.0000 0.7071
vn -0.3872 0.0000 0.9220
vn 0.0000 -0.0000 1.0000
vn 0.4143 0.8104 0.4143
vn 0.4373 0.4784 0.7616
vn 0.7616 0.4784 0.4373
vn 0.3872 0.0000 0.9220
vn 0.7071 0.0000 0.7071
vn 0.9220 0.0000 0.3872
vn 0.0000 -1.0000 -0.0000
vn -0.0000 -0.9261 -0.3774
vn 0.3774 -0.9261 -0.0000
vn -0.0000 -0.7096 -0.7046
vn 0.4143 -0.8104 -0.4143
vn 0.7046 -0.7096 -0.0000
vn -0.0000 -0.3746 -0.9272
vn 0.4373 -0.4784 -0.7616
vn 0.7616 -0.4784 -0.4373
vn 0.9272 -0.3746 -0.0000
vn -0.3774 -0.9261 0.0000
vn -0.7046 -0.7096 0.0000
vn -0.4143 -0.8104 -0.4143
vn -0.9272 -0.3746 0.0000
vn -0.7616 -0.4784 -0.4373
vn -0.4373 -0.4784 -0.7616
vn 0.0000 -0.9261 0.3774
vn 0.0000 -0.7096 0.7046
vn -0.4143 -0.8104 0.4143
vn 0.0000 -0.3746 0.9272
vn -0.4373 -0.4784 0.7616
vn -0.7616 -0.4784 0.4373
vn 0.4143 -0.8104 0.4143
vn 0.7616 -0.4784 0.4373
vn 0.4373 -0.4784 0.7616
# 66 vertex normals

vt 0.4746 0.5274 0.0000
vt 0.2530 0.5274 0.0000
vt 0.4746 0.3059 0.0000
vt 0.0652 0.5274 0.0000
vt 0.2382 0.2911 0.0000
vt 0.4746 0.1181 0.0000
vt 0.8544 0.1488 0.0000
vt 0.8639 0.1322 0.0000
vt 0.8825 0.1503 0.0000
vt 0.0351 0.2803 0.0000
vt 0.8581 0.0584 0.0000
vt 0.8564 0.0302 0.0000
vt 0.8813 0.0424 0.0000
vt 0.2275 0.0879 0.0000
vt 0.9735 0.1017 0.0000
vt 0.9889 0.1252 0.0000
vt 0.9639 0.1182 0.0000
vt 0.8752 0.1127 0.0000
vt 0.8948 0.1239 0.0000
vt 0.9113 0.1335 0.0000
vt 0.8814 0.0107 0.0000
vt 0.9888 0.1586 0.0000
vt 0.9722 0.1490 0.0000
vt 0.9527 0.1377 0.0000
vt 0.6961 0.5274 0.0000
vt 0.7109 0.2911 0.0000
vt 0.8839 0.5274 0.0000
vt 0.9453 0.1001 0.0000
vt 0.7216 0.0879 0.0000
vt 0.9661 0.2078 0.0000
vt 0.9644 0.1796 0.0000
vt 0.9893 0.1918 0.0000
vt 0.9141 0.2803 0.0000
vt 0.8416 0.1777 0.0000
vt 0.8652 0.1623 0.0000
vt 0.8582 0.1872 0.0000
vt 0.9331 0.1265 0.0000
vt 0.9166 0.1169 0.0000
vt 0.9893 0.1601 0.0000
vt 0.8985 0.1624 0.0000
vt 0.8890 0.1790 0.0000
vt 0.8777 0.1985 0.0000
vt 0.4746 0.7489 0.0000
vt 0.7109 0.7637 0.0000
vt 0.4746 0.9367 0.0000
vt 0.8401 0.2058 0.0000
vt 0.9141 0.7745 0.0000
vt 0.8365 0.1234 0.0000
vt 0.8084 0.1251 0.0000
vt 0.8205 0.1001 0.0000
vt 0.7216 0.9669 0.0000
vt 0.8386 0.2194 0.0000
vt 0.8150 0.2348 0.0000
vt 0.8220 0.2098 0.0000
vt 0.8664 0.2181 0.0000
vt 0.8569 0.2346 0.0000
vt 0.7888 0.1001 0.0000
vt 0.7816 0.2346 0.0000
vt 0.7912 0.2181 0.0000
vt 0.8025 0.1985 0.0000
vt 0.2382 0.7637 0.0000
vt 0.8401 0.1912 0.0000
vt 0.2275 0.9669 0.0000
vt 0.8062 0.1258 0.0000
vt 0.8344 0.1241 0.0000
vt 0.8223 0.1490 0.0000
vt 0.0351 0.7745 0.0000
vt 0.8390 0.1252 0.0000
vt 0.8137 0.1790 0.0000
vt 0.8233 0.1624 0.0000
vt 0.8540 0.1490 0.0000
vt 0.8391 0.0918 0.0000
vt 0.8557 0.1014 0.0000
vt 0.9437 0.0554 0.0000
vt 0.9437 0.0780 0.0000
vt 0.9211 0.0554 0.0000
vt 0.9437 0.0971 0.0000
vt 0.9196 0.0795 0.0000
vt 0.9020 0.0554 0.0000
vt 0.9318 0.1738 0.0000
vt 0.9414 0.1573 0.0000
vt 0.9600 0.1754 0.0000
vt 0.9185 0.1002 0.0000
vt 0.7870 0.1001 0.0000
vt 0.7887 0.1283 0.0000
vt 0.7638 0.1161 0.0000
vt 0.8989 0.0806 0.0000
vt 0.8961 0.0766 0.0000
vt 0.9115 0.1002 0.0000
vt 0.8865 0.0931 0.0000
vt 0.7637 0.1478 0.0000
vt 0.9663 0.0554 0.0000
vt 0.9854 0.0554 0.0000
vt 0.9678 0.0795 0.0000
vt 0.9138 0.2194 0.0000
vt 0.8972 0.2098 0.0000
vt 0.9154 0.1912 0.0000
vt 0.9884 0.0806 0.0000
vt 0.7697 0.1740 0.0000
vt 0.7681 0.1458 0.0000
vt 0.7930 0.1580 0.0000
vt 0.9689 0.1002 0.0000
vt 0.9164 0.1502 0.0000
vt 0.7930 0.1263 0.0000
vt 0.9437 0.0329 0.0000
vt 0.9437 0.0137 0.0000
vt 0.9678 0.0314 0.0000
vt 0.7664 0.1777 0.0000
vt 0.7829 0.1872 0.0000
vt 0.7648 0.2058 0.0000
vt 0.9689 0.0107 0.0000
vt 0.9153 0.2119 0.0000
vt 0.9435 0.2102 0.0000
vt 0.9313 0.2351 0.0000
vt 0.9884 0.0303 0.0000
vt 0.8902 0.2348 0.0000
vt 0.9630 0.2352 0.0000
vt 0.9196 0.0314 0.0000
vt 0.8679 0.0750 0.0000
vt 0.8989 0.0303 0.0000
vt 0.9109 0.1825 0.0000
vt 0.9391 0.1808 0.0000
vt 0.9270 0.2057 0.0000
vt 0.9185 0.0107 0.0000
vt 0.7900 0.1623 0.0000
vt 0.9587 0.2058 0.0000
# 126 texture coords

o GeoSphere001
g GeoSphere001
s 1
f 1/1/1 2/2/2 3/3/3 
f 2/2/2 4/4/4 5/5/5 
f 2/2/2 5/5/5 3/3/3 
f 3/3/3 5/5/5 6/6/6 
f 4/7/4 7/8/7 8/9/8 
f 4/4/4 8/10/8 5/5/5 
f 5/11/5 8/12/8 9/13/9 
f 5/5/5 9/14/9 6/6/6 
f 6/15/6 9/16/9 10/17/10 
f 7/8/7 11/18/11 12/19/12 
f 7/8/7 12/19/12 8/9/8 
f 8/9/8 12/19/12 13/20/13 
f 8/12/8 13/21/13 9/13/9 
f 9/16/9 13/22/13 14/23/14 
f 9/16/9 14/23/14 10/17/10 
f 10/17/10 14/23/14 15/24/15 
f 1/1/1 3/3/3 16/25/16 
f 3/3/3 6/6/6 17/26/17 
f 3/3/3 17/26/17 16/25/16 
f 16/25/16 17/26/17 18/27/18 
f 6/15/6 10/17/10 19/28/19 
f 6/6/6 19/29/19 17/26/17 
f 17/30/17 19/31/19 20/32/20 
f 17/26/17 20/33/20 18/27/18 
f 18/34/18 20/35/20 21/36/21 
f 10/17/10 15/24/15 22/37/22 
f 10/17/10 22/37/22 19/28/19 
f 19/28/19 22/37/22 23/38/23 
f 19/31/19 23/39/23 20/32/20 
f 20/35/20 23/40/23 24/41/24 
f 20/35/20 24/41/24 21/36/21 
f 21/36/21 24/41/24 25/42/25 
f 1/1/1 16/25/16 26/43/26 
f 16/25/16 18/27/18 27/44/27 
f 16/25/16 27/44/27 26/43/26 
f 26/43/26 27/44/27 28/45/28 
f 18/34/18 21/36/21 29/46/29 
f 18/27/18 29/47/29 27/44/27 
f 27/48/27 29/49/29 30/50/30 
f 27/44/27 30/51/30 28/45/28 
f 28/52/28 30/53/30 31/54/31 
f 21/36/21 25/42/25 32/55/32 
f 21/36/21 32/55/32 29/46/29 
f 29/46/29 32/55/32 33/56/33 
f 29/49/29 33/57/33 30/50/30 
f 30/53/30 33/58/33 34/59/34 
f 30/53/30 34/59/34 31/54/31 
f 31/54/31 34/59/34 35/60/35 
f 1/1/1 26/43/26 2/2/2 
f 26/43/26 28/45/28 36/61/36 
f 26/43/26 36/61/36 2/2/2 
f 2/2/2 36/61/36 4/4/4 
f 28/52/28 31/54/31 37/62/37 
f 28/45/28 37/63/37 36/61/36 
f 36/64/36 37/65/37 38/66/38 
f 36/61/36 38/67/38 4/4/4 
f 4/7/4 38/68/38 7/8/7 
f 31/54/31 35/60/35 39/69/39 
f 31/54/31 39/69/39 37/62/37 
f 37/62/37 39/69/39 40/70/40 
f 37/65/37 40/71/40 38/66/38 
f 38/68/38 40/72/40 41/73/41 
f 38/68/38 41/73/41 7/8/7 
f 7/8/7 41/73/41 11/18/11 
f 42/74/42 43/75/43 44/76/44 
f 43/75/43 45/77/45 46/78/46 
f 43/75/43 46/78/46 44/76/44 
f 44/76/44 46/78/46 47/79/47 
f 45/80/45 48/81/48 49/82/49 
f 45/77/45 49/83/49 46/78/46 
f 46/84/46 49/85/49 50/86/50 
f 46/78/46 50/87/50 47/79/47 
f 47/88/47 50/89/50 51/90/51 
f 48/81/48 15/24/15 14/23/14 
f 48/81/48 14/23/14 49/82/49 
f 49/82/49 14/23/14 13/22/13 
f 49/85/49 13/91/13 50/86/50 
f 50/89/50 13/20/13 12/19/12 
f 50/89/50 12/19/12 51/90/51 
f 51/90/51 12/19/12 11/18/11 
f 42/74/42 52/92/52 43/75/43 
f 52/92/52 53/93/53 54/94/54 
f 52/92/52 54/94/54 43/75/43 
f 43/75/43 54/94/54 45/77/45 
f 53/95/53 55/96/55 56/97/56 
f 53/93/53 56/98/56 54/94/54 
f 54/99/54 56/100/56 57/101/57 
f 54/94/54 57/102/57 45/77/45 
f 45/80/45 57/103/57 48/81/48 
f 55/96/55 25/42/25 24/41/24 
f 55/96/55 24/41/24 56/97/56 
f 56/97/56 24/41/24 23/40/23 
f 56/100/56 23/104/23 57/101/57 
f 57/103/57 23/38/23 22/37/22 
f 57/103/57 22/37/22 48/81/48 
f 48/81/48 22/37/22 15/24/15 
f 42/74/42 58/105/58 52/92/52 
f 58/105/58 59/106/59 60/107/60 
f 58/105/58 60/107/60 52/92/52 
f 52/92/52 60/107/60 53/93/53 
f 59/108/59 61/109/61 62/110/62 
f 59/106/59 62/111/62 60/107/60 
f 60/112/60 62/113/62 63/114/63 
f 60/107/60 63/115/63 53/93/53 
f 53/95/53 63/116/63 55/96/55 
f 61/109/61 35/60/35 34/59/34 
f 61/109/61 34/59/34 62/110/62 
f 62/110/62 34/59/34 33/58/33 
f 62/113/62 33/117/33 63/114/63 
f 63/116/63 33/56/33 32/55/32 
f 63/116/63 32/55/32 55/96/55 
f 55/96/55 32/55/32 25/42/25 
f 42/74/42 44/76/44 58/105/58 
f 44/76/44 47/79/47 64/118/64 
f 44/76/44 64/118/64 58/105/58 
f 58/105/58 64/118/64 59/106/59 
f 47/88/47 51/90/51 65/119/65 
f 47/79/47 65/120/65 64/118/64 
f 64/121/64 65/122/65 66/123/66 
f 64/118/64 66/124/66 59/106/59 
f 59/108/59 66/125/66 61/109/61 
f 51/90/51 11/18/11 41/73/41 
f 51/90/51 41/73/41 65/119/65 
f 65/119/65 41/73/41 40/72/40 
f 65/122/65 40/126/40 66/123/66 
f 66/125/66 40/70/40 39/69/39 
f 66/125/66 39/69/39 61/109/61 
f 61/109/61 39/69/39 35/60/35 
# 128 faces

